<svg xmlns="http://www.w3.org/2000/svg" width="126" height="186" viewBox="0 0 126 186" fill="none"><circle cx="33" cy="3" r="3" fill="white" fill-opacity="0.5"/><circle cx="63" cy="3" r="3" fill="white" fill-opacity="0.5"/><circle cx="93" cy="3" r="3" fill="white" fill-opacity="0.5"/><circle cx="123" cy="3" r="3" fill="white" fill-opacity="0.5"/><circle cx="33" cy="33" r="3" fill="white" fill-opacity="0.5"/><circle cx="63" cy="33" r="3" fill="white" fill-opacity="0.5"/><circle cx="93" cy="33" r="3" fill="white" fill-opacity="0.5"/><circle cx="123" cy="33" r="3" fill="white" fill-opacity="0.5"/><circle cx="33" cy="63" r="3" fill="white" fill-opacity="0.5"/><circle cx="63" cy="63" r="3" fill="white" fill-opacity="0.5"/><circle cx="3" cy="93" r="3" fill="white" fill-opacity="0.5"/><circle cx="93" cy="63" r="3" fill="white" fill-opacity="0.5"/><circle cx="123" cy="63" r="3" fill="white" fill-opacity="0.5"/><circle cx="33" cy="93" r="3" fill="white" fill-opacity="0.5"/><circle cx="63" cy="93" r="3" fill="white" fill-opacity="0.5"/><circle cx="3" cy="123" r="3" fill="white" fill-opacity="0.5"/><circle cx="93" cy="93" r="3" fill="white" fill-opacity="0.5"/><circle cx="123" cy="93" r="3" fill="white" fill-opacity="0.5"/><circle cx="33" cy="123" r="3" fill="white" fill-opacity="0.5"/><circle cx="33" cy="153" r="3" fill="white" fill-opacity="0.5"/><circle cx="33" cy="183" r="3" fill="white" fill-opacity="0.5"/><circle cx="63" cy="123" r="3" fill="white" fill-opacity="0.5"/><circle cx="63" cy="153" r="3" fill="white" fill-opacity="0.5"/><circle cx="63" cy="183" r="3" fill="white" fill-opacity="0.5"/><circle cx="93" cy="153" r="3" fill="white" fill-opacity="0.5"/><circle cx="93" cy="183" r="3" fill="white" fill-opacity="0.5"/><circle cx="3" cy="153" r="3" fill="white" fill-opacity="0.5"/><circle cx="3" cy="183" r="3" fill="white" fill-opacity="0.5"/><circle cx="93" cy="123" r="3" fill="white" fill-opacity="0.5"/><circle cx="123" cy="123" r="3" fill="white" fill-opacity="0.5"/></svg>