<?xml version="1.0" standalone="no"?>
<!DOCTYPE svg PUBLIC "-//W3C//DTD SVG 20010904//EN"
 "http://www.w3.org/TR/2001/REC-SVG-20010904/DTD/svg10.dtd">
<svg version="1.0" xmlns="http://www.w3.org/2000/svg"
 width="64.000000pt" height="64.000000pt" viewBox="0 0 64.000000 64.000000"
 preserveAspectRatio="xMidYMid meet">

<g transform="translate(0.000000,64.000000) scale(0.100000,-0.100000)"
fill="#000000" stroke="none">
<path d="M0 632 c0 -5 40 -51 88 -103 75 -79 90 -101 96 -137 6 -39 3 -47 -24
-79 -39 -44 -50 -73 -50 -126 1 -138 142 -226 265 -167 138 67 139 262 2 331
-33 17 -53 20 -103 16 l-62 -5 -5 37 c-2 20 -2 38 0 41 2 2 33 6 69 8 79 5
140 -15 197 -67 102 -92 118 -269 32 -338 -38 -31 -44 -43 -19 -43 31 0 82 67
95 124 15 69 5 132 -31 201 l-29 55 61 125 c33 69 58 129 54 132 -11 11 -23
-8 -81 -126 -51 -105 -57 -112 -73 -98 -59 51 -180 80 -253 59 l-37 -10 -88
89 c-84 84 -104 100 -104 81z m360 -304 c61 -31 90 -77 90 -142 0 -94 -62
-156 -155 -156 -79 0 -133 42 -155 120 -12 43 5 112 35 140 l23 21 7 -60 c5
-44 11 -61 22 -61 12 0 14 9 7 53 -12 85 -11 90 16 98 43 12 64 10 110 -13z"/>
<path d="M66 408 c-21 -30 -4 -60 32 -56 30 3 42 39 22 64 -17 20 -36 17 -54
-8z m35 -21 c-1 -12 -15 -9 -19 4 -3 6 1 10 8 8 6 -3 11 -8 11 -12z"/>
</g>
</svg>
